# xmcd
#
# Track frame offsets:
#	150
#	10303
#	21030
#	27033
#	36743
#	45305
#	54202
#	66040
#	75314
#	85721
#	93497
#	103526
#	113585
#
# Disc length: 1629 seconds
# Revision: 1
# Processed by: cddbd v1.5.2PL0 Copyright (c) Steve Scherf et al.
# Submitted via: dBpowerAMP V12.0
#
DISCID=8b065b0d
DTITLE=Johnny Cash - Johnny Cash Greatest 10 CD Collection 3
DYEAR=1959
DGENRE=Country
TTITLE0=Goodbye Little Darlin'
TTITLE1=I Just Thought You'd Like to Know
TTITLE2=You Tell Me
TTITLE3=Just About Time
TTITLE4=I Forgot to Remember to Forget
TTITLE5=Katy Too
TTITLE6=Thanks a Lot
TTITLE7=Luther Played the Boogie
TTITLE8=You Win Again
TTITLE9=Hey Good Lookin'
TTITLE10=I Could Never Be Ashamed of You
TTITLE11=Get Rhythm
TTITLE12=Second Honeymoon (1960 - Bonus Track)
EXTD=
EXTT0=
EXTT1=
EXTT2=
EXTT3=
EXTT4=
EXTT5=
EXTT6=
EXTT7=
EXTT8=
EXTT9=
EXTT10=
EXTT11=
EXTT12=
PLAYORDER=
